<svg xmlns="http://www.w3.org/2000/svg" viewBox="0 0 200 220" width="200" height="220">
  <defs>
    <radialGradient id="ghostBody" cx="50%" cy="35%" r="75%">
      <stop offset="0%" stop-color="#ffffff"/>
      <stop offset="70%" stop-color="#eef1f7"/>
      <stop offset="100%" stop-color="#d7dcea"/>
    </radialGradient>
    <filter id="ghostShadow" x="-50%" y="-50%" width="200%" height="200%">
      <feDropShadow dx="0" dy="6" stdDeviation="6" flood-color="#3a2f57" flood-opacity="0.25"/>
    </filter>
  </defs>

  <ellipse cx="100" cy="205" rx="55" ry="10" fill="#2a2140" opacity="0.25"/>

  <g filter="url(#ghostShadow)">
    <path d="M100 20
             C 45 20 20 62 20 110
             L 20 165
             C 20 175 30 175 33 167
             L 45 148
             C 48 141 57 141 60 148
             L 71 170
             C 74 177 84 177 87 170
             L 98 148
             C 101 141 110 141 113 148
             L 124 170
             C 127 177 137 177 140 170
             L 151 148
             C 154 141 163 141 166 148
             L 178 167
             C 181 175 191 175 191 165
             L 180 110
             C 180 62 155 20 100 20 Z"
          fill="url(#ghostBody)"/>

    <ellipse cx="70" cy="100" rx="12" ry="16" fill="#2a2140"/>
    <ellipse cx="130" cy="100" rx="12" ry="16" fill="#2a2140"/>
    <ellipse cx="73" cy="95" rx="4" ry="5" fill="#ffffff"/>
    <ellipse cx="133" cy="95" rx="4" ry="5" fill="#ffffff"/>

    <path d="M78 135 Q100 155 122 135 Q100 145 78 135 Z" fill="#2a2140"/>

    <ellipse cx="55" cy="120" rx="10" ry="6" fill="#ff9fc9" opacity="0.5"/>
    <ellipse cx="145" cy="120" rx="10" ry="6" fill="#ff9fc9" opacity="0.5"/>
  </g>

  <g opacity="0.7">
    <circle cx="30" cy="40" r="3" fill="#ffe98a"/>
    <circle cx="175" cy="55" r="2.5" fill="#ffe98a"/>
    <circle cx="165" cy="30" r="2" fill="#ffe98a"/>
  </g>
</svg>
